<?xml version="1.0" encoding="utf-8"?>
<!-- Generator: Adobe Illustrator 26.3.1, SVG Export Plug-In . SVG Version: 6.00 Build 0)  -->
<svg version="1.1" id="Layer_1" xmlns="http://www.w3.org/2000/svg" xmlns:xlink="http://www.w3.org/1999/xlink" x="0px" y="0px"
	 viewBox="0 0 207 59.5" style="enable-background:new 0 0 207 59.5;" xml:space="preserve">
<g>
	<path d="M39.88,5.19c3.44,1.99,6.16,4.71,8.18,8.15c2.02,3.44,3.03,7.2,3.03,11.29c0,3.52-0.76,6.8-2.28,9.84
		c-1.52,3.04-3.62,5.61-6.3,7.71l8.11,15.19H2.23V2.2h26.44C32.71,2.2,36.45,3.2,39.88,5.19z"/>
	<path d="M83.61,2.2c3.46,0,6.58,0.77,9.36,2.32c2.78,1.55,4.96,3.57,6.53,6.06c1.57,2.49,2.36,5.1,2.36,7.83
		c0,3.57-1.23,6.69-3.7,9.37c1.99,1.47,3.48,3.19,4.45,5.16c0.97,1.97,1.46,4.05,1.46,6.26c0,2.99-0.88,5.88-2.64,8.66
		c-1.76,2.78-4.26,5.05-7.51,6.81c-3.25,1.76-6.98,2.64-11.18,2.64H54.96V2.2H83.61z"/>
	<path d="M122.96,2.87c3.54-1.44,7.23-2.16,11.06-2.16c3.78,0,7.44,0.72,10.98,2.16c3.54,1.44,6.7,3.56,9.48,6.34l-20.54,20.46
		l20.54,20.54c-2.78,2.78-5.94,4.89-9.48,6.34c-3.54,1.44-7.2,2.16-10.98,2.16c-3.83,0-7.51-0.72-11.06-2.16
		c-3.54-1.44-6.7-3.55-9.48-6.34c-2.78-2.78-4.89-5.94-6.34-9.48c-1.44-3.54-2.16-7.23-2.16-11.06c0-3.78,0.72-7.44,2.16-10.98
		c1.44-3.54,3.55-6.7,6.34-9.48C116.26,6.42,119.42,4.31,122.96,2.87z"/>
	<path d="M193.69,5.19c3.46,1.99,6.2,4.7,8.22,8.11c2.02,3.41,3.03,7.16,3.03,11.25c0,3.99-1,7.69-2.99,11.1
		c-1.99,3.41-4.7,6.13-8.11,8.15c-3.41,2.02-7.13,3.03-11.17,3.03v10.47h-26.6V2.2h26.36C186.47,2.2,190.22,3.2,193.69,5.19z"/>
</g>
</svg>
