<?xml version="1.0" encoding="utf-8"?>
<!-- Generator: Adobe Illustrator 27.3.1, SVG Export Plug-In . SVG Version: 6.00 Build 0)  -->
<svg version="1.1" id="Layer_1" xmlns="http://www.w3.org/2000/svg" xmlns:xlink="http://www.w3.org/1999/xlink" x="0px" y="0px"
	 viewBox="0 0 500 500" style="enable-background:new 0 0 500 500;" xml:space="preserve">
<style type="text/css">
	.st0{fill:#88976D;}
</style>
<g id="Shadow">
	
		<image style="overflow:visible;opacity:0.2;" width="524" height="524" xlink:href="82E0772A3D4294DB.png"  transform="matrix(1 0 0 1 -9 -9)">
	</image>
	<g>
		<g>
			<path class="st0" d="M303.5,155.4c-49.2,0-78.7,40.1-78.7,94.4c0,54.3,29.4,94.9,78.7,94.9c30.4,0,59.9-18.3,73.1-39.6V194.4
				C363.4,173.1,334,155.4,303.5,155.4z"/>
			<path class="st0" d="M250,0.2c-46.2,0-89.5,12.6-126.6,34.4v337.9H85.3V62.2C33.2,108,0.2,175.1,0.2,250
				c0,137.9,111.8,249.8,249.8,249.8c46.2,0,89.5-12.6,126.6-34.4V335.5c-19.8,27.4-49.2,43.1-82.2,43.1
				c-64.4,0-109.1-49.7-109.1-128.9c0-79.7,44.7-128.4,109.1-128.4c34.5,0,64.4,17.8,82.2,42.6v-36.5h38.1v310.3
				c52.2-45.8,85.1-112.9,85.1-187.8C499.8,112.1,387.9,0.2,250,0.2z"/>
		</g>
	</g>
</g>
</svg>
