<?xml version="1.0" encoding="UTF-8"?>
<svg id="Layer_1" data-name="Layer 1" xmlns="http://www.w3.org/2000/svg" viewBox="0 0 500 500">
  <g id="Shadow">
    <g>
      <path d="m303.53,155.36c-49.23,0-78.65,40.09-78.65,94.39s29.43,94.89,78.65,94.89c30.45,0,59.88-18.27,73.07-39.58v-110.63c-13.19-21.31-42.62-39.07-73.07-39.07Z"/>
      <path d="m250,.24c-46.21,0-89.48,12.56-126.6,34.44v337.87h-38.06V62.22C33.18,108,.24,175.15.24,250c0,137.94,111.82,249.76,249.76,249.76,46.21,0,89.48-12.56,126.6-34.44v-129.82c-19.79,27.4-49.22,43.14-82.21,43.14-64.44,0-109.1-49.73-109.1-128.89s44.66-128.39,109.1-128.39c34.51,0,64.45,17.76,82.21,42.63v-36.54h38.06v310.33c52.16-45.78,85.1-112.93,85.1-187.78C499.76,112.06,387.94.24,250,.24Z"/>
    </g>
  </g>
</svg>